<mxfile host="app.diagrams.net" modified="2023-08-16T23:41:26.692Z" agent="Mozilla/5.0 (Windows NT 10.0; Win64; x64) AppleWebKit/537.36 (KHTML, like Gecko) Chrome/115.0.0.0 Safari/537.36" version="21.6.7" etag="GHt8MXDgBRM35Z_NKIk0" type="github">
  <diagram name="Page-1" id="CYJYj1ydNKxUGGFtC1lY">
    <mxGraphModel>
      <root>
        <mxCell id="0" />
        <mxCell id="1" parent="0" />
      </root>
    </mxGraphModel>
  </diagram>
</mxfile>
